# xmcd CD database file
#
# Track frame offsets:
#	150
#	24194
#	55384
#	80798
#	105117
#	148542
#	170954
#	192569
#	210430
#	253207
#	287558
#
# Disc length: 4118 seconds
#
# Revision: 0
# Processed by: cddbd v1.5.2PL0 Copyright (c) Steve Scherf et al.
# Submitted via: CDex 1.51
#
DISCID=9e10140b
DTITLE=maikäfermalen - rilke, ringelnatz und jazz 
DYEAR=2011
DGENRE=Jazz
TTITLE0=Maikäfermalen
TTITLE1=Nemaless
TTITLE2=Pat´s Favorite Key
TTITLE3=Der Tantenmörder
TTITLE4=Clave Cinco
TTITLE5=That Woman
TTITLE6=Das Gesellenstück
TTITLE7=Reklame
TTITLE8=Song for Double Bass
TTITLE9=Das Rosen-Innere
TTITLE10=Schlußstück
EXTD=YEAR: 2011
EXTT0=
EXTT1=
EXTT2=
EXTT3=
EXTT4=
EXTT5=
EXTT6=
EXTT7=
EXTT8=
EXTT9=
EXTT10=
PLAYORDER=
